<svg width="187" height="60" viewBox="0 0 187 60" fill="none" xmlns="http://www.w3.org/2000/svg">
<rect x="1" y="1" width="185" height="58" rx="19" stroke="#A259FF" stroke-width="2"/>
<path fill-rule="evenodd" clip-rule="evenodd" d="M52.8393 26.7456C54.3292 25.2557 56.6671 23.75 60 23.75C63.3329 23.75 65.6708 25.2557 67.1607 26.7456C67.9038 27.4887 68.4397 28.2308 68.7906 28.7881C68.9664 29.0672 69.0966 29.3015 69.184 29.4683C69.2277 29.5518 69.2608 29.6185 69.2835 29.6657C69.2949 29.6893 69.3037 29.708 69.3099 29.7216L69.3174 29.7379L69.3197 29.7431L69.3206 29.7449L69.3209 29.7456C69.321 29.7459 69.3211 29.7462 68.75 30C69.3211 30.2538 69.321 30.2541 69.3209 30.2544L69.3206 30.2551L69.3197 30.2569L69.3174 30.2621L69.3099 30.2784C69.3037 30.292 69.2949 30.3107 69.2835 30.3343C69.2608 30.3815 69.2277 30.4482 69.184 30.5317C69.0966 30.6985 68.9664 30.9328 68.7906 31.2119C68.4397 31.7692 67.9038 32.5113 67.1607 33.2544C65.6708 34.7443 63.3329 36.25 60 36.25C56.6671 36.25 54.3292 34.7443 52.8393 33.2544C52.0962 32.5113 51.5603 31.7692 51.2094 31.2119C51.0336 30.9328 50.9034 30.6985 50.816 30.5317C50.7723 30.4482 50.7392 30.3815 50.7165 30.3343C50.7051 30.3107 50.6963 30.292 50.6901 30.2784L50.6826 30.2621L50.6803 30.2569L50.6794 30.2551L50.6791 30.2544C50.679 30.2541 50.6789 30.2538 51.25 30C50.6789 29.7462 50.679 29.7459 50.6791 29.7456L50.6794 29.7449L50.6803 29.7431L50.6826 29.7379L50.6901 29.7216C50.6963 29.708 50.7051 29.6893 50.7165 29.6657C50.7392 29.6185 50.7723 29.5518 50.816 29.4683C50.9034 29.3015 51.0336 29.0672 51.2094 28.7881C51.5603 28.2308 52.0962 27.4887 52.8393 26.7456ZM51.25 30L50.6789 29.7462C50.607 29.9078 50.607 30.0922 50.6789 30.2538L51.25 30ZM51.9488 30C52.0223 30.1377 52.1279 30.3248 52.2672 30.5459C52.5803 31.0433 53.0601 31.7074 53.7232 32.3706C55.0458 33.6932 57.0829 35 60 35C62.9171 35 64.9542 33.6932 66.2768 32.3706C66.9399 31.7074 67.4197 31.0433 67.7328 30.5459C67.8721 30.3248 67.9777 30.1377 68.0512 30C67.9777 29.8623 67.8721 29.6752 67.7328 29.4541C67.4197 28.9567 66.9399 28.2926 66.2768 27.6294C64.9542 26.3068 62.9171 25 60 25C57.0829 25 55.0458 26.3068 53.7232 27.6294C53.0601 28.2926 52.5803 28.9567 52.2672 29.4541C52.1279 29.6752 52.0223 29.8623 51.9488 30ZM68.75 30L69.3211 30.2538C69.393 30.0922 69.393 29.9078 69.3211 29.7462L68.75 30Z" fill="#A259FF"/>
<path fill-rule="evenodd" clip-rule="evenodd" d="M60 27.5C58.6193 27.5 57.5 28.6193 57.5 30C57.5 31.3807 58.6193 32.5 60 32.5C61.3807 32.5 62.5 31.3807 62.5 30C62.5 28.6193 61.3807 27.5 60 27.5ZM56.25 30C56.25 27.9289 57.9289 26.25 60 26.25C62.0711 26.25 63.75 27.9289 63.75 30C63.75 32.0711 62.0711 33.75 60 33.75C57.9289 33.75 56.25 32.0711 56.25 30Z" fill="#A259FF"/>
<path d="M87.6226 24.28C88.5826 24.28 89.4253 24.4453 90.1506 24.776C90.876 25.1067 91.4946 25.5973 92.0066 26.248L90.7746 27.672C90.3373 27.1173 89.8573 26.712 89.3346 26.456C88.8226 26.1893 88.2253 26.056 87.5426 26.056C87.0946 26.056 86.7213 26.1147 86.4226 26.232C86.1346 26.3493 85.9213 26.504 85.7826 26.696C85.6546 26.888 85.5906 27.1013 85.5906 27.336C85.5906 27.624 85.7026 27.8693 85.9266 28.072C86.1506 28.264 86.5346 28.424 87.0786 28.552L89.0466 29C90.092 29.2347 90.8386 29.5867 91.2866 30.056C91.7453 30.5147 91.9746 31.112 91.9746 31.848C91.9746 32.5413 91.7933 33.1387 91.4306 33.64C91.068 34.1307 90.5613 34.5093 89.9106 34.776C89.26 35.032 88.5133 35.16 87.6706 35.16C86.9346 35.16 86.2573 35.0747 85.6386 34.904C85.0306 34.7227 84.4866 34.4773 84.0066 34.168C83.5266 33.8587 83.1266 33.5013 82.8066 33.096L84.0546 31.608C84.3 31.9493 84.604 32.2533 84.9666 32.52C85.3293 32.7867 85.74 33 86.1986 33.16C86.668 33.3093 87.1586 33.384 87.6706 33.384C88.108 33.384 88.476 33.336 88.7746 33.24C89.084 33.1333 89.3133 32.9893 89.4626 32.808C89.6226 32.616 89.7026 32.3867 89.7026 32.12C89.7026 31.8427 89.6066 31.608 89.4146 31.416C89.2333 31.2133 88.892 31.0587 88.3906 30.952L86.2466 30.472C85.628 30.3227 85.0946 30.1307 84.6466 29.896C84.2093 29.6507 83.8733 29.3413 83.6386 28.968C83.4146 28.584 83.3026 28.1307 83.3026 27.608C83.3026 26.9787 83.4733 26.4133 83.8146 25.912C84.156 25.4107 84.6466 25.016 85.2866 24.728C85.9373 24.4293 86.716 24.28 87.6226 24.28ZM97.5515 35.16C96.7088 35.16 95.9728 34.9947 95.3435 34.664C94.7248 34.3333 94.2448 33.8587 93.9035 33.24C93.5622 32.6213 93.3915 31.8747 93.3915 31C93.3915 30.1253 93.5622 29.3787 93.9035 28.76C94.2448 28.1413 94.7195 27.6667 95.3275 27.336C95.9462 27.0053 96.6502 26.84 97.4395 26.84C98.2502 26.84 98.9382 27.0053 99.5035 27.336C100.069 27.656 100.501 28.0987 100.8 28.664C101.098 29.2187 101.248 29.8533 101.248 30.568C101.248 30.7813 101.242 30.984 101.232 31.176C101.221 31.368 101.205 31.5387 101.184 31.688H94.7995V30.168H100.224L99.1675 30.552C99.1675 29.88 99.0128 29.3627 98.7035 29C98.4048 28.6373 97.9782 28.456 97.4235 28.456C97.0182 28.456 96.6662 28.552 96.3675 28.744C96.0795 28.936 95.8608 29.224 95.7115 29.608C95.5622 29.9813 95.4875 30.456 95.4875 31.032C95.4875 31.5973 95.5675 32.0667 95.7275 32.44C95.8982 32.8027 96.1328 33.0747 96.4315 33.256C96.7408 33.4373 97.1088 33.528 97.5355 33.528C98.0048 33.528 98.3835 33.4373 98.6715 33.256C98.9595 33.0747 99.1835 32.824 99.3435 32.504L101.088 33.176C100.917 33.592 100.656 33.9493 100.304 34.248C99.9622 34.5467 99.5515 34.776 99.0715 34.936C98.6022 35.0853 98.0955 35.16 97.5515 35.16ZM106.817 35.16C105.974 35.16 105.238 34.9947 104.609 34.664C103.99 34.3333 103.51 33.8587 103.169 33.24C102.828 32.6213 102.657 31.8747 102.657 31C102.657 30.1253 102.828 29.3787 103.169 28.76C103.51 28.1413 103.985 27.6667 104.593 27.336C105.212 27.0053 105.916 26.84 106.705 26.84C107.516 26.84 108.204 27.0053 108.769 27.336C109.334 27.656 109.766 28.0987 110.065 28.664C110.364 29.2187 110.513 29.8533 110.513 30.568C110.513 30.7813 110.508 30.984 110.497 31.176C110.486 31.368 110.47 31.5387 110.449 31.688H104.065V30.168H109.489L108.433 30.552C108.433 29.88 108.278 29.3627 107.969 29C107.67 28.6373 107.244 28.456 106.689 28.456C106.284 28.456 105.932 28.552 105.633 28.744C105.345 28.936 105.126 29.224 104.977 29.608C104.828 29.9813 104.753 30.456 104.753 31.032C104.753 31.5973 104.833 32.0667 104.993 32.44C105.164 32.8027 105.398 33.0747 105.697 33.256C106.006 33.4373 106.374 33.528 106.801 33.528C107.27 33.528 107.649 33.4373 107.937 33.256C108.225 33.0747 108.449 32.824 108.609 32.504L110.353 33.176C110.182 33.592 109.921 33.9493 109.569 34.248C109.228 34.5467 108.817 34.776 108.337 34.936C107.868 35.0853 107.361 35.16 106.817 35.16ZM126.2 35H123.912L123.032 32.424H118.984L118.104 35H115.848L119.704 24.44H122.344L126.2 35ZM119.48 30.792H122.536L121 26.184L119.48 30.792ZM129.703 23.496V32.536C129.703 32.9093 129.767 33.1707 129.895 33.32C130.023 33.4693 130.236 33.544 130.535 33.544C130.716 33.544 130.865 33.5333 130.983 33.512C131.1 33.48 131.249 33.4373 131.431 33.384L131.239 34.824C131.057 34.9307 130.828 35.0107 130.551 35.064C130.284 35.128 130.017 35.16 129.751 35.16C128.972 35.16 128.401 34.9733 128.039 34.6C127.687 34.216 127.511 33.608 127.511 32.776V23.496H129.703ZM134.812 23.496V32.536C134.812 32.9093 134.876 33.1707 135.004 33.32C135.132 33.4693 135.345 33.544 135.644 33.544C135.825 33.544 135.975 33.5333 136.092 33.512C136.209 33.48 136.359 33.4373 136.54 33.384L136.348 34.824C136.167 34.9307 135.937 35.0107 135.66 35.064C135.393 35.128 135.127 35.16 134.86 35.16C134.081 35.16 133.511 34.9733 133.148 34.6C132.796 34.216 132.62 33.608 132.62 32.776V23.496H134.812Z" fill="white"/>
</svg>
