<svg width="198" height="198" viewBox="0 0 198 198" fill="none" xmlns="http://www.w3.org/2000/svg">
<path d="M95.0007 161.667C131.82 161.667 161.667 131.82 161.667 95.0007C161.667 58.1817 131.82 28.334 95.0007 28.334C58.1816 28.334 28.334 58.1817 28.334 95.0007C28.334 131.82 58.1816 161.667 95.0007 161.667Z" fill="url(#paint0_linear_3225_6480)"/>
<g filter="url(#filter0_f_3225_6480)">
<path d="M99.0576 143.695C123.71 143.695 143.695 123.71 143.695 99.0576C143.695 74.4049 123.71 54.4199 99.0576 54.4199C74.4049 54.4199 54.4199 74.4049 54.4199 99.0576C54.4199 123.71 74.4049 143.695 99.0576 143.695Z" fill="url(#paint1_linear_3225_6480)"/>
</g>
<path fill-rule="evenodd" clip-rule="evenodd" d="M50.997 67.5107C52.1124 67.5107 53.0166 66.6065 53.0166 65.4912C53.0166 64.3759 52.1124 63.4717 50.997 63.4717C49.8817 63.4717 48.9776 64.3759 48.9776 65.4912C48.9776 66.6065 49.8817 67.5107 50.997 67.5107ZM50.997 69.0254C52.9489 69.0254 54.5312 67.4431 54.5312 65.4912C54.5312 63.5393 52.9489 61.957 50.997 61.957C49.0452 61.957 47.4629 63.5393 47.4629 65.4912C47.4629 67.4431 49.0452 69.0254 50.997 69.0254Z" fill="white"/>
<path fill-rule="evenodd" clip-rule="evenodd" d="M44.622 130.118C45.7374 130.118 46.6416 129.214 46.6416 128.098C46.6416 126.983 45.7374 126.079 44.622 126.079C43.5067 126.079 42.6026 126.983 42.6026 128.098C42.6026 129.214 43.5067 130.118 44.622 130.118ZM44.622 131.633C46.5739 131.633 48.1562 130.05 48.1562 128.098C48.1562 126.146 46.5739 124.564 44.622 124.564C42.6702 124.564 41.0879 126.146 41.0879 128.098C41.0879 130.05 42.6702 131.633 44.622 131.633Z" fill="white"/>
<path fill-rule="evenodd" clip-rule="evenodd" d="M138.534 44.9013C139.649 44.9013 140.554 43.9972 140.554 42.8818C140.554 41.7665 139.649 40.8623 138.534 40.8623C137.419 40.8623 136.515 41.7665 136.515 42.8818C136.515 43.9972 137.419 44.9013 138.534 44.9013ZM138.534 46.416C140.486 46.416 142.068 44.8337 142.068 42.8818C142.068 40.93 140.486 39.3477 138.534 39.3477C136.582 39.3477 135 40.93 135 42.8818C135 44.8337 136.582 46.416 138.534 46.416Z" fill="white"/>
<path d="M52.9069 39.4576C53.0554 38.8423 53.9307 38.8423 54.0793 39.4576L54.5792 41.5287C54.6323 41.7486 54.804 41.9203 55.0239 41.9734L57.095 42.4733C57.7103 42.6218 57.7103 43.4972 57.095 43.6457L55.0239 44.1456C54.804 44.1987 54.6323 44.3704 54.5792 44.5903L54.0793 46.6614C53.9307 47.2767 53.0554 47.2767 52.9069 46.6614L52.407 44.5903C52.3539 44.3704 52.1822 44.1987 51.9623 44.1456L49.8912 43.6457C49.2758 43.4972 49.2758 42.6218 49.8912 42.4733L51.9623 41.9734C52.1822 41.9203 52.3539 41.7486 52.407 41.5287L52.9069 39.4576Z" fill="white"/>
<path d="M146.185 60.5606C146.347 59.8861 147.307 59.8861 147.469 60.5606L148.018 62.8307C148.076 63.0717 148.264 63.26 148.505 63.3182L150.775 63.8662C151.45 64.029 151.45 64.9884 150.775 65.1512L148.505 65.6992C148.264 65.7574 148.076 65.9456 148.018 66.1866L147.469 68.4568C147.307 69.1313 146.347 69.1313 146.185 68.4568L145.636 66.1866C145.578 65.9456 145.39 65.7574 145.149 65.6992L142.879 65.1512C142.204 64.9884 142.204 64.029 142.879 63.8662L145.149 63.3182C145.39 63.26 145.578 63.0717 145.636 62.8307L146.185 60.5606Z" fill="url(#paint2_linear_3225_6480)"/>
<path d="M46.9031 143.253C47.6706 143.131 48.2834 143.884 48.0061 144.611L46.1342 149.512C45.8568 150.238 44.8974 150.392 44.4072 149.789L41.0983 145.717C40.608 145.114 40.9547 144.206 41.7222 144.083L46.9031 143.253Z" fill="url(#paint3_linear_3225_6480)"/>
<path d="M137.306 132.104C137.114 131.351 137.809 130.673 138.557 130.882L143.609 132.302C144.357 132.513 144.597 133.454 144.041 133.997L140.286 137.662C139.729 138.205 138.794 137.942 138.602 137.188L137.306 132.104Z" fill="url(#paint4_linear_3225_6480)"/>
<g filter="url(#filter1_f_3225_6480)">
<path d="M130.378 146.285C130.378 149.861 113.411 152.76 92.4809 152.76C71.5511 152.76 54.584 149.861 54.584 146.285C54.584 142.708 71.5511 139.809 92.4809 139.809C113.411 139.809 130.378 142.708 130.378 146.285Z" fill="url(#paint5_radial_3225_6480)"/>
</g>
<g filter="url(#filter2_i_3225_6480)">
<path d="M93.2181 53.3138L68.5349 57.6661C66.5519 58.0158 65.2279 59.9067 65.5775 61.8897L71.7984 97.1703C72.148 99.1535 74.039 100.478 76.022 100.127L100.705 95.7755C102.688 95.4259 104.012 93.5349 103.663 91.5517L97.4419 56.2712C97.0917 54.2883 95.2007 52.9641 93.2181 53.3138Z" fill="url(#paint6_linear_3225_6480)"/>
</g>
<path d="M93.5754 71.4499L74.4011 74.8309C73.7554 74.9447 73.3243 75.5604 73.4382 76.2061L73.4389 76.2099C73.5527 76.8556 74.1684 77.2867 74.814 77.1728L93.9887 73.7918C94.6339 73.678 95.0652 73.0623 94.9516 72.4166L94.951 72.4128C94.8368 71.7671 94.2212 71.336 93.5754 71.4499Z" fill="url(#paint7_linear_3225_6480)"/>
<path d="M96.492 87.9267L77.4825 91.2786C76.8424 91.3917 76.4129 91.9899 76.5231 92.6154L76.5238 92.6195C76.6341 93.245 77.2424 93.6607 77.8825 93.5476L96.892 90.1957C97.5326 90.0827 97.9616 89.4844 97.8514 88.8589L97.8508 88.8549C97.7407 88.2294 97.132 87.8137 96.492 87.9267Z" fill="url(#paint8_linear_3225_6480)"/>
<path d="M94.9708 79.3056L75.961 82.6575C75.3208 82.7705 74.8913 83.3688 75.0017 83.9943L75.0023 83.9984C75.1126 84.6239 75.7209 85.0395 76.361 84.9265L95.3708 81.5746C96.0108 81.4615 96.4404 80.863 96.3302 80.2375L96.3296 80.2338C96.2189 79.6083 95.6108 79.1927 94.9708 79.3056Z" fill="url(#paint9_linear_3225_6480)"/>
<path d="M79.259 61.3925L73.6557 62.3805C72.4145 62.5994 71.5857 63.783 71.8046 65.0241L72.0788 66.5791C72.2976 67.8203 73.4812 68.649 74.7224 68.4302L80.3257 67.4422C81.5668 67.2234 82.3958 66.0398 82.1766 64.7986L81.9024 63.2436C81.6839 62.0024 80.5001 61.1736 79.259 61.3925Z" fill="#A259FF"/>
<g filter="url(#filter3_i_3225_6480)">
<path d="M122.633 63.043H89.9761C88.4543 63.043 87.2207 64.2766 87.2207 65.7984V81.1485C87.2207 82.6702 88.4543 83.9038 89.9761 83.9038H122.633C124.155 83.9038 125.389 82.6702 125.389 81.1485V65.7984C125.389 64.2766 124.155 63.043 122.633 63.043Z" fill="url(#paint10_linear_3225_6480)"/>
</g>
<path d="M95.2808 76.6384C97.0304 76.6384 98.4489 75.2201 98.4489 73.4706C98.4489 71.721 97.0304 70.3027 95.2808 70.3027C93.5313 70.3027 92.1133 71.721 92.1133 73.4706C92.1133 75.2201 93.5313 76.6384 95.2808 76.6384Z" fill="white"/>
<path d="M106.602 76.6384C108.351 76.6384 109.769 75.2201 109.769 73.4706C109.769 71.721 108.351 70.3027 106.602 70.3027C104.852 70.3027 103.434 71.721 103.434 73.4706C103.434 75.2201 104.852 76.6384 106.602 76.6384Z" fill="white"/>
<path d="M117.922 76.6384C119.672 76.6384 121.09 75.2201 121.09 73.4706C121.09 71.721 119.672 70.3027 117.922 70.3027C116.172 70.3027 114.754 71.721 114.754 73.4706C114.754 75.2201 116.172 76.6384 117.922 76.6384Z" fill="white"/>
<path fill-rule="evenodd" clip-rule="evenodd" d="M89.3281 118.196C89.6017 116.643 91.0823 115.606 92.6353 115.88L108.948 118.756C111.177 119.149 113.191 120.184 114.619 121.68C116.046 123.174 117.013 125.299 116.599 127.651C116.184 130.004 114.548 131.67 112.697 132.587C110.843 133.505 108.596 133.79 106.366 133.397L67.6057 126.562C66.053 126.288 65.0161 124.807 65.2899 123.255C65.5637 121.702 67.0444 120.665 68.5972 120.939L107.358 127.774C108.514 127.977 109.51 127.794 110.163 127.47C110.817 127.146 110.951 126.8 110.976 126.66C111 126.521 110.993 126.15 110.49 125.623C109.987 125.096 109.114 124.584 107.956 124.379L91.5768 120.921C90.0243 120.648 89.0539 119.748 89.3281 118.196Z" fill="url(#paint11_linear_3225_6480)"/>
<path fill-rule="evenodd" clip-rule="evenodd" d="M120.837 89.1307C121.451 87.813 122.873 87.0721 124.305 87.3243L137.093 89.5794C138.839 89.8872 140.005 91.5521 139.698 93.2988C139.389 95.0449 137.724 96.2107 135.978 95.9029L125.617 94.0756L119.496 107.214C118.748 108.821 116.838 109.517 115.23 108.768C113.623 108.019 112.927 106.109 113.676 104.502L120.837 89.1307Z" fill="url(#paint12_linear_3225_6480)"/>
<path d="M75.2545 137.937C79.0374 138.604 82.6448 136.078 83.312 132.295C83.9787 128.512 81.4529 124.905 77.67 124.238C73.8871 123.57 70.2797 126.097 69.6127 129.879C68.9457 133.663 71.4716 137.27 75.2545 137.937Z" fill="url(#paint13_linear_3225_6480)"/>
<path d="M117.887 94.9352L70.6845 86.6123C67.1462 85.9885 64.0034 88.5288 64.2499 91.8094L64.8394 110.954C65.0182 113.324 66.9522 115.324 69.5077 115.774L110.653 125.806L122.165 102.03C124.818 97.2152 121.433 95.5607 117.887 94.9352Z" fill="url(#paint14_linear_3225_6480)"/>
<path d="M75.6655 134.504C77.5659 134.839 79.3783 133.57 79.7134 131.67C80.0485 129.77 78.7795 127.957 76.879 127.622C74.9784 127.287 73.1661 128.556 72.831 130.457C72.4959 132.357 73.7649 134.169 75.6655 134.504Z" fill="url(#paint15_linear_3225_6480)"/>
<mask id="mask0_3225_6480" style="mask-type:alpha" maskUnits="userSpaceOnUse" x="64" y="86" width="59" height="40">
<path d="M117.887 94.9352L70.6845 86.6123C67.1462 85.9885 64.0034 88.5288 64.2499 91.8094L64.8394 110.954C65.0182 113.324 66.9522 115.324 69.5077 115.774L110.653 125.806L122.166 102.03C123.52 99.0233 121.433 95.5607 117.887 94.9352Z" fill="url(#paint16_linear_3225_6480)"/>
</mask>
<g mask="url(#mask0_3225_6480)">
<path d="M95.0496 107.561C95.2542 106.477 96.2994 105.761 97.384 105.961C98.4681 106.162 99.1812 107.203 98.9765 108.286L96.2745 122.578C96.0698 123.662 95.0246 124.377 93.9406 124.177C92.8559 123.977 92.1429 122.936 92.3475 121.852L95.0496 107.561Z" fill="#A259FF"/>
<path d="M130.311 98.2647C131.216 98.4218 131.826 99.2838 131.673 100.19L131.561 100.846C131.408 101.752 130.549 102.359 129.644 102.202L63.6447 90.7395C62.7393 90.5818 62.1299 89.7198 62.2834 88.8143L62.3947 88.158C62.5483 87.252 63.4068 86.645 64.3121 86.8021L130.311 98.2647Z" fill="#A259FF"/>
<path d="M106.157 109.566C106.362 108.483 107.407 107.767 108.491 107.967C109.576 108.168 110.289 109.209 110.083 110.292L107.382 124.584C107.177 125.668 106.132 126.384 105.047 126.183C103.963 125.983 103.25 124.942 103.455 123.858L106.157 109.566Z" fill="#A259FF"/>
<path d="M83.9441 105.553C84.1487 104.469 85.194 103.753 86.278 103.953C87.3626 104.154 88.0757 105.195 87.8705 106.279L85.169 120.57C84.9644 121.654 83.9192 122.37 82.8345 122.17C81.7505 121.969 81.0374 120.928 81.2421 119.844L83.9441 105.553Z" fill="#A259FF"/>
<path d="M72.7094 103.572C72.9143 102.489 73.9594 101.773 75.0437 101.973C76.1281 102.174 76.8411 103.215 76.6363 104.298L73.9346 118.59C73.7298 119.673 72.6847 120.389 71.6003 120.189C70.5159 119.989 69.8029 118.947 70.0078 117.864L72.7094 103.572Z" fill="#A259FF"/>
<path d="M62.9551 86.8134C63.1626 85.6366 64.2845 84.8511 65.4609 85.0586L123.142 95.2291C124.318 95.4366 125.104 96.5589 124.896 97.7352C124.689 98.912 123.567 99.6975 122.391 99.49L64.7098 89.3189C63.5332 89.112 62.7477 87.9897 62.9551 86.8134Z" fill="url(#paint17_linear_3225_6480)"/>
</g>
<defs>
<filter id="filter0_f_3225_6480" x="0.419922" y="0.419922" width="197.275" height="197.275" filterUnits="userSpaceOnUse" color-interpolation-filters="sRGB">
<feFlood flood-opacity="0" result="BackgroundImageFix"/>
<feBlend mode="normal" in="SourceGraphic" in2="BackgroundImageFix" result="shape"/>
<feGaussianBlur stdDeviation="27" result="effect1_foregroundBlur_3225_6480"/>
</filter>
<filter id="filter1_f_3225_6480" x="33.8966" y="119.121" width="117.17" height="54.326" filterUnits="userSpaceOnUse" color-interpolation-filters="sRGB">
<feFlood flood-opacity="0" result="BackgroundImageFix"/>
<feBlend mode="normal" in="SourceGraphic" in2="BackgroundImageFix" result="shape"/>
<feGaussianBlur stdDeviation="10.3437" result="effect1_foregroundBlur_3225_6480"/>
</filter>
<filter id="filter2_i_3225_6480" x="65.5215" y="53.2578" width="40.5818" height="52.4897" filterUnits="userSpaceOnUse" color-interpolation-filters="sRGB">
<feFlood flood-opacity="0" result="BackgroundImageFix"/>
<feBlend mode="normal" in="SourceGraphic" in2="BackgroundImageFix" result="shape"/>
<feColorMatrix in="SourceAlpha" type="matrix" values="0 0 0 0 0 0 0 0 0 0 0 0 0 0 0 0 0 0 127 0" result="hardAlpha"/>
<feOffset dx="2.38455" dy="5.56394"/>
<feGaussianBlur stdDeviation="5.96137"/>
<feComposite in2="hardAlpha" operator="arithmetic" k2="-1" k3="1"/>
<feColorMatrix type="matrix" values="0 0 0 0 0.104618 0 0 0 0 0.465612 0 0 0 0 0.545833 0 0 0 0.15 0"/>
<feBlend mode="normal" in2="shape" result="effect1_innerShadow_3225_6480"/>
</filter>
<filter id="filter3_i_3225_6480" x="87.2207" y="63.043" width="43.7938" height="24.6119" filterUnits="userSpaceOnUse" color-interpolation-filters="sRGB">
<feFlood flood-opacity="0" result="BackgroundImageFix"/>
<feBlend mode="normal" in="SourceGraphic" in2="BackgroundImageFix" result="shape"/>
<feColorMatrix in="SourceAlpha" type="matrix" values="0 0 0 0 0 0 0 0 0 0 0 0 0 0 0 0 0 0 127 0" result="hardAlpha"/>
<feOffset dx="5.62585" dy="3.75056"/>
<feGaussianBlur stdDeviation="6.09467"/>
<feComposite in2="hardAlpha" operator="arithmetic" k2="-1" k3="1"/>
<feColorMatrix type="matrix" values="0 0 0 0 0.104618 0 0 0 0 0.465612 0 0 0 0 0.545833 0 0 0 0.09 0"/>
<feBlend mode="normal" in2="shape" result="effect1_innerShadow_3225_6480"/>
</filter>
<linearGradient id="paint0_linear_3225_6480" x1="46.9331" y1="28.334" x2="148.695" y2="49.5172" gradientUnits="userSpaceOnUse">
<stop stop-color="#A259FF"/>
<stop offset="1" stop-color="#3B3B3B"/>
</linearGradient>
<linearGradient id="paint1_linear_3225_6480" x1="118.188" y1="135.193" x2="88.417" y2="131.799" gradientUnits="userSpaceOnUse">
<stop stop-color="#A259FF" stop-opacity="0"/>
<stop offset="1" stop-color="#FF6250"/>
</linearGradient>
<linearGradient id="paint2_linear_3225_6480" x1="148.731" y1="62.0342" x2="157.271" y2="68.7412" gradientUnits="userSpaceOnUse">
<stop stop-color="#A259FF"/>
<stop offset="1" stop-color="#377DF7"/>
</linearGradient>
<linearGradient id="paint3_linear_3225_6480" x1="47.6946" y1="145.739" x2="47.4094" y2="154.236" gradientUnits="userSpaceOnUse">
<stop stop-color="#A259FF"/>
<stop offset="1" stop-color="#377DF7"/>
</linearGradient>
<linearGradient id="paint4_linear_3225_6480" x1="139.71" y1="131.091" x2="148.197" y2="130.604" gradientUnits="userSpaceOnUse">
<stop stop-color="#A259FF"/>
<stop offset="1" stop-color="#377DF7"/>
</linearGradient>
<radialGradient id="paint5_radial_3225_6480" cx="0" cy="0" r="1" gradientUnits="userSpaceOnUse" gradientTransform="translate(92.4809 146.285) rotate(90) scale(6.47606 37.8971)">
<stop stop-color="#2B2B2B"/>
<stop offset="1" stop-color="#2B2B2B" stop-opacity="0"/>
</radialGradient>
<linearGradient id="paint6_linear_3225_6480" x1="70.1033" y1="57.3895" x2="102.205" y2="56.4003" gradientUnits="userSpaceOnUse">
<stop stop-color="#A259FF"/>
<stop offset="1" stop-color="#3B3B3B"/>
</linearGradient>
<linearGradient id="paint7_linear_3225_6480" x1="90.6942" y1="73.6896" x2="88.587" y2="67.4434" gradientUnits="userSpaceOnUse">
<stop stop-color="#A259FF"/>
<stop offset="0.666667" stop-color="white"/>
</linearGradient>
<linearGradient id="paint8_linear_3225_6480" x1="93.6288" y1="90.1093" x2="91.6068" y2="84.0479" gradientUnits="userSpaceOnUse">
<stop stop-color="#A259FF"/>
<stop offset="0.666667" stop-color="white"/>
</linearGradient>
<linearGradient id="paint9_linear_3225_6480" x1="92.107" y1="81.4882" x2="90.085" y2="75.4268" gradientUnits="userSpaceOnUse">
<stop stop-color="#A259FF"/>
<stop offset="0.666667" stop-color="white"/>
</linearGradient>
<linearGradient id="paint10_linear_3225_6480" x1="87.2207" y1="88.5902" x2="110.708" y2="53.3404" gradientUnits="userSpaceOnUse">
<stop stop-color="#A259FF"/>
<stop offset="1" stop-color="#FF6250"/>
</linearGradient>
<linearGradient id="paint11_linear_3225_6480" x1="105.831" y1="129.032" x2="97.7791" y2="91.2403" gradientUnits="userSpaceOnUse">
<stop stop-color="#A259FF"/>
<stop offset="0.666667" stop-color="white"/>
</linearGradient>
<linearGradient id="paint12_linear_3225_6480" x1="132.67" y1="93.9452" x2="151.256" y2="115.578" gradientUnits="userSpaceOnUse">
<stop stop-color="#A259FF"/>
<stop offset="1" stop-color="#377DF7"/>
</linearGradient>
<linearGradient id="paint13_linear_3225_6480" x1="80.0194" y1="134.781" x2="64.1324" y2="118.549" gradientUnits="userSpaceOnUse">
<stop stop-color="#A259FF"/>
<stop offset="0.666667" stop-color="white"/>
</linearGradient>
<linearGradient id="paint14_linear_3225_6480" x1="107.942" y1="116.234" x2="76.0077" y2="52.5692" gradientUnits="userSpaceOnUse">
<stop stop-color="#A259FF"/>
<stop offset="0.666667" stop-color="white"/>
</linearGradient>
<linearGradient id="paint15_linear_3225_6480" x1="72.3212" y1="132.14" x2="82.2365" y2="134.05" gradientUnits="userSpaceOnUse">
<stop stop-color="white"/>
<stop offset="1" stop-color="#BCF3FF"/>
</linearGradient>
<linearGradient id="paint16_linear_3225_6480" x1="63.8351" y1="92.9294" x2="122.295" y2="103.959" gradientUnits="userSpaceOnUse">
<stop stop-color="#AFF1FF"/>
<stop offset="1" stop-color="#65C8DE"/>
</linearGradient>
<linearGradient id="paint17_linear_3225_6480" x1="112.217" y1="96.4534" x2="113.168" y2="84.4163" gradientUnits="userSpaceOnUse">
<stop stop-color="#A259FF"/>
<stop offset="0.666667" stop-color="white"/>
</linearGradient>
</defs>
</svg>
