<svg width="206" height="206" viewBox="0 0 206 206" fill="none" xmlns="http://www.w3.org/2000/svg">
<path d="M103.001 169.667C139.82 169.667 169.667 139.82 169.667 103.001C169.667 66.1817 139.82 36.334 103.001 36.334C66.1816 36.334 36.334 66.1817 36.334 103.001C36.334 139.82 66.1816 169.667 103.001 169.667Z" fill="url(#paint0_linear_3225_6453)"/>
<g filter="url(#filter0_f_3225_6453)">
<path d="M103 151.696C129.894 151.696 151.696 129.894 151.696 103C151.696 76.1065 129.894 54.3047 103 54.3047C76.1065 54.3047 54.3047 76.1065 54.3047 103C54.3047 129.894 76.1065 151.696 103 151.696Z" fill="url(#paint1_linear_3225_6453)"/>
</g>
<path fill-rule="evenodd" clip-rule="evenodd" d="M71.1709 52.9013C72.2862 52.9013 73.1904 51.9972 73.1904 50.8818C73.1904 49.7665 72.2862 48.8623 71.1709 48.8623C70.0556 48.8623 69.1514 49.7665 69.1514 50.8818C69.1514 51.9972 70.0556 52.9013 71.1709 52.9013ZM71.1709 54.416C73.1227 54.416 74.7051 52.8337 74.7051 50.8818C74.7051 48.93 73.1227 47.3477 71.1709 47.3477C69.219 47.3477 67.6367 48.93 67.6367 50.8818C67.6367 52.8337 69.219 54.416 71.1709 54.416Z" fill="white"/>
<path fill-rule="evenodd" clip-rule="evenodd" d="M52.622 138.118C53.7374 138.118 54.6416 137.214 54.6416 136.098C54.6416 134.983 53.7374 134.079 52.622 134.079C51.5067 134.079 50.6026 134.983 50.6026 136.098C50.6026 137.214 51.5067 138.118 52.622 138.118ZM52.622 139.633C54.5739 139.633 56.1562 138.05 56.1562 136.098C56.1562 134.146 54.5739 132.564 52.622 132.564C50.6702 132.564 49.0879 134.146 49.0879 136.098C49.0879 138.05 50.6702 139.633 52.622 139.633Z" fill="white"/>
<path fill-rule="evenodd" clip-rule="evenodd" d="M154.071 81.3075C155.186 81.3075 156.091 80.4034 156.091 79.288C156.091 78.1727 155.186 77.2686 154.071 77.2686C152.956 77.2686 152.052 78.1727 152.052 79.288C152.052 80.4034 152.956 81.3075 154.071 81.3075ZM154.071 82.8223C156.023 82.8223 157.606 81.2397 157.606 79.288C157.606 77.3362 156.023 75.7539 154.071 75.7539C152.119 75.7539 150.537 77.3362 150.537 79.288C150.537 81.2397 152.119 82.8223 154.071 82.8223Z" fill="white"/>
<path d="M48.155 53.2545C48.3035 52.6391 49.1788 52.6391 49.3273 53.2545L49.8273 55.3256C49.8804 55.5454 50.0521 55.7172 50.272 55.7703L52.343 56.2702C52.9584 56.4187 52.9584 57.294 52.343 57.4425L50.272 57.9425C50.0521 57.9956 49.8804 58.1672 49.8273 58.3872L49.3273 60.4583C49.1788 61.0736 48.3035 61.0736 48.155 60.4583L47.655 58.3872C47.6019 58.1672 47.4303 57.9956 47.2103 57.9425L45.1393 57.4425C44.5239 57.294 44.5239 56.4187 45.1393 56.2702L47.2103 55.7703C47.4303 55.7172 47.6019 55.5454 47.655 55.3256L48.155 53.2545Z" fill="white"/>
<path d="M155.925 52.9082C156.087 52.2337 157.047 52.2337 157.21 52.9082L157.758 55.1784C157.816 55.4194 158.004 55.6076 158.245 55.6658L160.515 56.2138C161.19 56.3766 161.19 57.336 160.515 57.4989L158.245 58.0469C158.004 58.1051 157.816 58.2933 157.758 58.5343L157.21 60.8045C157.047 61.479 156.087 61.479 155.925 60.8045L155.377 58.5343C155.319 58.2933 155.13 58.1051 154.889 58.0469L152.619 57.4989C151.945 57.336 151.945 56.3766 152.619 56.2138L154.889 55.6658C155.13 55.6076 155.319 55.4194 155.377 55.1784L155.925 52.9082Z" fill="url(#paint2_linear_3225_6453)"/>
<path d="M54.9011 151.253C55.6687 151.131 56.2814 151.884 56.0041 152.611L54.1322 157.512C53.8549 158.238 52.8955 158.392 52.4053 157.789L49.0963 153.717C48.6061 153.114 48.9527 152.206 49.7203 152.083L54.9011 151.253Z" fill="url(#paint3_linear_3225_6453)"/>
<path d="M147.046 137.786C146.854 137.032 147.549 136.354 148.298 136.564L153.349 137.984C154.097 138.194 154.338 139.136 153.781 139.678L150.026 143.343C149.47 143.886 148.535 143.623 148.342 142.87L147.046 137.786Z" fill="url(#paint4_linear_3225_6453)"/>
<path d="M128.803 112.197L83.7903 95.8128C80.3399 94.5572 76.5247 96.3363 75.2689 99.7867L64.643 128.981C63.3872 132.431 65.1662 136.246 68.6166 137.502L113.63 153.886C117.08 155.141 120.895 153.362 122.151 149.912L132.777 120.718C134.033 117.267 132.254 113.452 128.803 112.197Z" fill="url(#paint5_linear_3225_6453)"/>
<path d="M126.976 121.238L140.273 102.085C142.367 99.0688 141.619 94.9262 138.603 92.8323L119.45 79.5354C116.434 77.4413 112.291 78.189 110.197 81.2051L96.9006 100.358C94.8067 103.374 95.554 107.517 98.5702 109.611L117.723 122.908C120.739 125.002 124.882 124.254 126.976 121.238Z" fill="url(#paint6_linear_3225_6453)"/>
<path d="M111.836 105.996C111.023 107.117 109.46 107.365 108.339 106.551C107.218 105.738 106.97 104.175 107.783 103.054C108.597 101.933 110.16 101.685 111.281 102.499C112.402 103.312 112.65 104.875 111.836 105.996Z" fill="url(#paint7_linear_3225_6453)"/>
<path d="M119.236 95.7864L117.689 94.6641L110.301 104.852L111.848 105.975L119.236 95.7864Z" fill="url(#paint8_linear_3225_6453)"/>
<path d="M120.532 107.805C119.718 108.926 118.155 109.174 117.034 108.36C115.913 107.547 115.665 105.984 116.479 104.863C117.292 103.741 118.855 103.493 119.976 104.307C121.098 105.121 121.346 106.684 120.532 107.805Z" fill="url(#paint9_linear_3225_6453)"/>
<path d="M127.946 97.5885L126.399 96.4668L119.012 106.656L120.56 107.778L127.946 97.5885Z" fill="url(#paint10_linear_3225_6453)"/>
<path d="M127.927 97.6146L116.707 96.0262L117.693 94.6621L128.911 96.2557L127.927 97.6146Z" fill="url(#paint11_linear_3225_6453)"/>
<path d="M126.064 100.181L114.844 98.5926L115.829 97.2285L127.052 98.8239L126.064 100.181Z" fill="url(#paint12_linear_3225_6453)"/>
<path d="M117.129 78.8443L113.235 60.8038C112.461 57.2146 108.923 54.933 105.334 55.7077L81.743 60.7995C78.154 61.5742 75.8724 65.1118 76.6471 68.701L80.5411 86.7415C81.3157 90.3305 84.8531 92.6122 88.4427 91.8377L112.033 86.7455C115.622 85.9711 117.904 82.4337 117.129 78.8443Z" fill="url(#paint13_linear_3225_6453)"/>
<path d="M116.821 76.9886L103.597 66.3711L98.4845 76.4501L93.099 73.3453L85.6532 83.71L80.0684 84.9135L80.3343 86.1633C81.2318 90.3123 85.3205 92.9517 89.4695 92.0538L111.189 87.3668C115.338 86.4694 117.978 82.3807 117.08 78.2319L116.814 76.9886H116.821Z" fill="url(#paint14_linear_3225_6453)"/>
<path opacity="0.9" d="M85.5197 72.1419C87.5875 72.0887 88.9238 70.0144 88.1191 68.1129C87.6669 67.0492 86.5835 66.3511 85.4264 66.3777C83.3591 66.4309 82.0223 68.5052 82.8269 70.4067C83.2791 71.4704 84.3626 72.1685 85.5197 72.1419Z" fill="white"/>
<path d="M121.453 148.843C120.533 152.711 116.447 154.912 112.711 153.552L67.7818 137.199C64.61 136.045 62.8066 132.697 63.5878 129.413L69.9681 102.593C70.8881 98.7255 74.9741 96.5243 78.7098 97.8843L123.639 114.237C126.811 115.392 128.614 118.739 127.833 122.023L121.453 148.843Z" fill="url(#paint15_linear_3225_6453)"/>
<defs>
<filter id="filter0_f_3225_6453" x="0.304688" y="0.304688" width="205.391" height="205.391" filterUnits="userSpaceOnUse" color-interpolation-filters="sRGB">
<feFlood flood-opacity="0" result="BackgroundImageFix"/>
<feBlend mode="normal" in="SourceGraphic" in2="BackgroundImageFix" result="shape"/>
<feGaussianBlur stdDeviation="27" result="effect1_foregroundBlur_3225_6453"/>
</filter>
<linearGradient id="paint0_linear_3225_6453" x1="54.9331" y1="36.334" x2="156.695" y2="57.5172" gradientUnits="userSpaceOnUse">
<stop stop-color="#A259FF"/>
<stop offset="1" stop-color="#3B3B3B"/>
</linearGradient>
<linearGradient id="paint1_linear_3225_6453" x1="159.232" y1="111.116" x2="122.997" y2="173.576" gradientUnits="userSpaceOnUse">
<stop stop-color="#A259FF" stop-opacity="0"/>
<stop offset="1" stop-color="#FF6250"/>
</linearGradient>
<linearGradient id="paint2_linear_3225_6453" x1="158.472" y1="54.3819" x2="167.011" y2="61.0889" gradientUnits="userSpaceOnUse">
<stop stop-color="#A259FF"/>
<stop offset="1" stop-color="#377DF7"/>
</linearGradient>
<linearGradient id="paint3_linear_3225_6453" x1="55.6927" y1="153.739" x2="55.4074" y2="162.236" gradientUnits="userSpaceOnUse">
<stop stop-color="#A259FF"/>
<stop offset="1" stop-color="#377DF7"/>
</linearGradient>
<linearGradient id="paint4_linear_3225_6453" x1="149.45" y1="136.772" x2="157.937" y2="136.285" gradientUnits="userSpaceOnUse">
<stop stop-color="#A259FF"/>
<stop offset="1" stop-color="#377DF7"/>
</linearGradient>
<linearGradient id="paint5_linear_3225_6453" x1="115.22" y1="117.744" x2="140.052" y2="177.092" gradientUnits="userSpaceOnUse">
<stop stop-color="#A259FF"/>
<stop offset="0.416667" stop-color="#A259FF" stop-opacity="0"/>
</linearGradient>
<linearGradient id="paint6_linear_3225_6453" x1="122.477" y1="113.451" x2="79.8181" y2="126.56" gradientUnits="userSpaceOnUse">
<stop stop-color="#FF7262"/>
<stop offset="0.317708" stop-color="#A259FF"/>
</linearGradient>
<linearGradient id="paint7_linear_3225_6453" x1="115.769" y1="94.3936" x2="120.497" y2="104.352" gradientUnits="userSpaceOnUse">
<stop stop-color="#3B3B3B"/>
<stop offset="1" stop-color="#A259FF"/>
</linearGradient>
<linearGradient id="paint8_linear_3225_6453" x1="132.472" y1="77.2942" x2="136.641" y2="81.3864" gradientUnits="userSpaceOnUse">
<stop stop-color="#3B3B3B"/>
<stop offset="1" stop-color="#A259FF"/>
</linearGradient>
<linearGradient id="paint9_linear_3225_6453" x1="124.465" y1="96.2028" x2="129.192" y2="106.161" gradientUnits="userSpaceOnUse">
<stop stop-color="#3B3B3B"/>
<stop offset="1" stop-color="#A259FF"/>
</linearGradient>
<linearGradient id="paint10_linear_3225_6453" x1="141.179" y1="79.094" x2="145.349" y2="83.1856" gradientUnits="userSpaceOnUse">
<stop stop-color="#3B3B3B"/>
<stop offset="1" stop-color="#A259FF"/>
</linearGradient>
<linearGradient id="paint11_linear_3225_6453" x1="130.555" y1="89.2424" x2="130.384" y2="100.957" gradientUnits="userSpaceOnUse">
<stop stop-color="#3B3B3B"/>
<stop offset="1" stop-color="#A259FF"/>
</linearGradient>
<linearGradient id="paint12_linear_3225_6453" x1="128.696" y1="91.8106" x2="128.524" y2="103.525" gradientUnits="userSpaceOnUse">
<stop stop-color="#3B3B3B"/>
<stop offset="1" stop-color="#A259FF"/>
</linearGradient>
<linearGradient id="paint13_linear_3225_6453" x1="102.171" y1="60.621" x2="109.699" y2="85.2267" gradientUnits="userSpaceOnUse">
<stop stop-color="#FF7262"/>
<stop offset="1" stop-color="#A259FF"/>
</linearGradient>
<linearGradient id="paint14_linear_3225_6453" x1="96.8509" y1="101.84" x2="88.6735" y2="71.635" gradientUnits="userSpaceOnUse">
<stop stop-color="#A259FF"/>
<stop offset="1" stop-color="white"/>
</linearGradient>
<linearGradient id="paint15_linear_3225_6453" x1="110.689" y1="140.568" x2="79.4184" y2="61.0068" gradientUnits="userSpaceOnUse">
<stop stop-color="#A259FF"/>
<stop offset="0.666667" stop-color="white"/>
</linearGradient>
</defs>
</svg>
